# xmcd
#
# Track frame offsets:
#	182
#	18477
#	34935
#	48615
#	62140
#	74980
#	85160
#	96620
#	107767
#	119852
#	132845
#	142087
#	154207
#	165470
#	175580
#	187640
#	199730
#
# Disc length: 2859 seconds
#
# Revision: 2
# Processed by: cddbd v1.5.2PL0 Copyright (c) Steve Scherf et al.
# Submitted via: audiograbber 1.83.01
#
DISCID=fe0b2911
DTITLE=Hooker, John Lee - 16 greatest hits
DYEAR=1988
DGENRE=Blues
TTITLE0=House rent boogie
TTITLE1=Mama, you got a daughter
TTITLE2=Tease me baby
TTITLE3=Ground hog blues
TTITLE4=Leave my wife alone
TTITLE5=Dimples
TTITLE6=Boom boom
TTITLE7=Bottle up and go
TTITLE8=Cry before I go
TTITLE9=Back biter and syndicaters
TTITLE10=Think twice before you go
TTITLE11=I'm in the mood
TTITLE12=Little wheel
TTITLE13=Want ad blues
TTITLE14=Whiskey and wimmen
TTITLE15=Crawling king snake
TTITLE16=Sugar mama
EXTD=
EXTT0=
EXTT1=
EXTT2=
EXTT3=
EXTT4=
EXTT5=
EXTT6=
EXTT7=
EXTT8=
EXTT9=
EXTT10=
EXTT11=
EXTT12=
EXTT13=
EXTT14=
EXTT15=
EXTT16=
PLAYORDER=
